<?xml version="1.0" encoding="UTF-8"?>
<!DOCTYPE svg PUBLIC "-//W3C//DTD SVG 1.1//EN" "http://www.w3.org/Graphics/SVG/1.1/DTD/svg11.dtd">
<svg xmlns="http://www.w3.org/2000/svg" version="1.1" width="1280px" height="1280px" style="shape-rendering:geometricPrecision; text-rendering:geometricPrecision; image-rendering:optimizeQuality; fill-rule:evenodd; clip-rule:evenodd" xmlns:xlink="http://www.w3.org/1999/xlink">
<g><path style="opacity:0.986" fill="#fefefe" d="M 672.5,76.5 C 685.837,76.3334 699.171,76.5001 712.5,77C 747.781,83.6132 766.948,104.78 770,140.5C 770.667,323.167 770.667,505.833 770,688.5C 766.469,723.698 747.303,744.531 712.5,751C 699.167,751.667 685.833,751.667 672.5,751C 647.908,747.134 630.408,733.967 620,711.5C 618.052,706.658 616.719,701.658 616,696.5C 615.333,508.167 615.333,319.833 616,131.5C 622.603,100.395 641.436,82.0617 672.5,76.5 Z"/></g>
<g><path style="opacity:0.988" fill="#fefefe" d="M 863.5,178.5 C 879.536,178.134 895.536,178.634 911.5,180C 937.674,187.152 953.84,203.985 960,230.5C 960.667,420.5 960.667,610.5 960,800.5C 953.435,828.731 935.935,845.898 907.5,852C 891.5,852.667 875.5,852.667 859.5,852C 830.915,845.081 813.415,827.248 807,798.5C 806.333,609.833 806.333,421.167 807,232.5C 814.056,201.94 832.889,183.94 863.5,178.5 Z"/></g>
<g><path style="opacity:0.987" fill="#fefefe" d="M 476.5,240.5 C 492.837,240.333 509.17,240.5 525.5,241C 550.473,246.642 567.306,261.475 576,285.5C 576.945,289.114 577.612,292.781 578,296.5C 578.667,483.833 578.667,671.167 578,858.5C 572.081,890.085 553.248,908.585 521.5,914C 507.833,914.667 494.167,914.667 480.5,914C 454.356,909.867 436.522,895.367 427,870.5C 425.871,865.191 424.871,859.857 424,854.5C 423.333,670.167 423.333,485.833 424,301.5C 427.593,268.871 445.093,248.538 476.5,240.5 Z"/></g>
<g><path style="opacity:0.984" fill="#fefefe" d="M 289.5,343.5 C 302.837,343.333 316.171,343.5 329.5,344C 354.886,347.451 372.719,360.951 383,384.5C 384.745,389.735 386.079,395.068 387,400.5C 387.667,613.167 387.667,825.833 387,1038.5C 377.985,1100.52 344.152,1142.69 285.5,1165C 226.174,1181.66 174.674,1168.49 131,1125.5C 89.2732,1076.72 80.2732,1022.39 104,962.5C 130.355,909.234 173.188,880.234 232.5,875.5C 232.333,716.5 232.5,557.5 233,398.5C 239.591,367.407 258.424,349.074 289.5,343.5 Z"/></g>
<g><path style="opacity:0.988" fill="#fefefe" d="M 1051.5,344.5 C 1065.17,344.333 1078.84,344.5 1092.5,345C 1124.17,350.331 1143,368.831 1149,400.5C 1149.67,613.5 1149.67,826.5 1149,1039.5C 1140.03,1103.79 1104.86,1146.29 1043.5,1167C 983.394,1182.02 932.227,1167.19 890,1122.5C 852.68,1075.64 844.347,1023.98 865,967.5C 890.303,912.069 933.47,881.736 994.5,876.5C 994.333,717.5 994.5,558.5 995,399.5C 1001.55,368.447 1020.39,350.114 1051.5,344.5 Z"/></g>
</svg>
